<svg id="visual" viewBox="0 0 900 600" width="900" height="600" xmlns="http://www.w3.org/2000/svg" xmlns:xlink="http://www.w3.org/1999/xlink" version="1.1"><rect x="0" y="0" width="900" height="600" fill="#ffffff"></rect><path d="M412 0L421 25C430 50 448 100 425.8 150C403.7 200 341.3 250 351 300C360.7 350 442.3 400 461.5 450C480.7 500 437.3 550 415.7 575L394 600L0 600L0 575C0 550 0 500 0 450C0 400 0 350 0 300C0 250 0 200 0 150C0 100 0 50 0 25L0 0Z" fill="#39594D" stroke-linecap="round" stroke-linejoin="miter"></path></svg>